<svg width="104" height="132" viewBox="0 0 104 132" fill="none" xmlns="http://www.w3.org/2000/svg">
<path d="M66.6712 76.5871C74.0529 77.4104 100.071 100.626 102.794 95.923C105.518 91.2201 102.268 76.955 93.1118 70.9152C83.956 64.8754 68.4522 64.143 63.4885 60.5899C58.5247 57.0367 57.5931 53.2873 57.9885 52.1066C58.384 50.9259 91.5848 59.6365 96.7817 53.6871C101.979 47.7378 96.1483 39.724 86.7687 35.3104C77.3891 30.8968 56.9971 41.1903 51.6387 39.6697C46.2802 38.1491 43.784 33.4691 45.563 32.7838C47.342 32.0984 68.6051 29.3388 74.9626 25.509C81.3201 21.6791 82.6455 15.8574 70.8134 14.7909C58.9814 13.7243 44.0935 23.5967 40.2384 21.8375C36.3834 20.0782 37.6432 18.0495 39.6604 17.098C41.6776 16.1464 55.9578 11.6431 60.5613 9.00568C65.1648 6.36826 56.5027 1.16326 53.2329 0.203521C49.9632 -0.75622 40.4275 1.90918 37.9322 3.38886C35.4369 4.86854 34.0939 9.32646 31.6662 9.23844C29.2384 9.15041 28.6275 2.71248 27.4835 1.95879C26.3396 1.20509 20.1464 3.25884 19.7792 4.94198C19.4119 6.62512 23.3937 9.87551 22.6623 12.3868C21.9308 14.898 17.285 12.5862 13.0847 16.2661C8.88448 19.9459 1.19965 32.6798 2.80238 37.7073C4.40511 42.7348 20.5167 26.2261 25.6139 24.4234C29.3999 23.6359 31.8648 25.5985 30.1599 27.7987C28.455 29.9988 0.0672371 48.6938 0.00209282 55.5666C-0.0630514 62.4395 1.37187 60.8567 5.07395 59.422C8.77603 57.9874 26.9063 40.5265 30.5136 43.2384C34.1209 45.9503 6.37845 67.6343 6.17914 76.7866C5.97984 85.939 8.62393 95.868 13.3845 95.3945C18.1451 94.921 27.096 66.9754 34.3184 65.3774C41.5407 63.7794 35.6774 68.4455 34.2136 73.47C32.7499 78.4945 21.7421 98.4907 23.4961 103.46C25.2501 108.429 25.8183 113.859 31.5322 112.33C37.2461 110.801 42.6916 85.2431 46.349 85.8823C50.0064 86.5216 43.0793 100.329 45.1369 110.488C47.1945 120.646 56.3368 128.407 59.0698 126.66C61.8028 124.912 61.6561 124.974 60.6185 122.293C59.581 119.613 54.6409 111.257 54.4605 105.507C54.28 99.7567 52.9852 95.9795 54.8136 96.2984C56.6421 96.6173 58.7741 102.125 59.5557 106.786C60.3374 111.447 61.3905 121.652 63.968 123.907C66.5456 126.162 73.7193 135.881 83.8925 128.695C94.0657 121.51 89.3452 111.52 85.6519 105.077C81.9586 98.6338 76.9241 94.4201 71.8668 88.8463C66.8095 83.2725 63.3756 76.2194 66.6712 76.5871Z" fill="#7BF1A8"/>
</svg>
