<svg width="762" height="762" viewBox="0 0 762 762" fill="none" xmlns="http://www.w3.org/2000/svg">
<g clip-path="url(#clip0_29_29)">
<rect width="1200" height="762" fill="white"/>
<path d="M0 0H1200V762H0V0Z" fill="#8200DB"/>
<path d="M0 0H1200V635H0V0Z" fill="#0084D1"/>
<path d="M0 0H1200V508H0V0Z" fill="#00A63E"/>
<path d="M0 0H1200V381H0V0Z" fill="#FDC700"/>
<path d="M0 0H1200V254H0V0Z" fill="#FE9A00"/>
<path d="M0 0H1200V127H0V0Z" fill="#E7000B"/>
<path d="M315 0H0V762H315L668 381L315 0Z" fill="black"/>
<path d="M241 0H0V762H241L594 381L241 0Z" fill="#894B00"/>
<path d="M168 0H0V762H168L521 381L168 0Z" fill="#74D4FF"/>
<path d="M95 0H0V762H95L448 381L95 0Z" fill="#FDA5D5"/>
<path d="M0 0V762H22L374 381L22 0H0Z" fill="white"/>
<path d="M0 706L301 381L0 55V706Z" fill="#FFD230"/>
<path d="M111 461C155.183 461 191 425.183 191 381C191 336.817 155.183 301 111 301C66.8172 301 31 336.817 31 381C31 425.183 66.8172 461 111 461Z" stroke="#5D0EC0" stroke-width="19"/>
<rect width="1200" height="762" fill="white" fill-opacity="0.61"/>
</g>
<defs>
<clipPath id="clip0_29_29">
<rect width="762" height="762" fill="white"/>
</clipPath>
</defs>
</svg>
